<?xml version="1.0" encoding="UTF-8" standalone="no"?>
<svg width="100%" height="100%" viewBox="0 0 210 210" version="1.1" xmlns="http://www.w3.org/2000/svg" xmlns:xlink="http://www.w3.org/1999/xlink" xml:space="preserve" xmlns:serif="http://www.serif.com/" style="fill-rule:evenodd;clip-rule:evenodd;stroke-linejoin:round;stroke-miterlimit:2;">
    <path d="M1,0.5C1,0.224 0.776,0 0.5,0C0.224,0 0,0.224 0,0.5C0,0.776 0.224,1 0.5,1C0.776,1 1,0.776 1,0.5Z" style="fill:white;"/>
    <rect width="100%" height="100%" fill="#FFFFFF" rx="20" ry="20" />
    <g transform="matrix(1,0,0,1,1.21111,45.1342) translate(0, -8)" >
        <g transform="matrix(1.04988,0,0,1,-10.3002,0)">
            <path d="M192.205,52.693L206.502,81.227L124.995,81.331L118.067,52.638L192.205,52.693Z" style="fill:rgb(59,25,53);fill-rule:nonzero;"/>
        </g>
        <g transform="matrix(0.915299,0,0,0.896216,7.53478,13.8514)">
            <path d="M144.865,-16.316L183.045,-16.316L90.877,137.541L52.697,137.541L144.865,-16.316Z" style="fill:rgb(64,64,64);fill-rule:nonzero;"/>
        </g>
        <g transform="matrix(0.915299,0,0,0.896216,-47.4142,13.7789)">
            <path d="M144.865,-16.316L183.045,-16.316L90.877,137.541L52.697,137.541L144.865,-16.316Z" style="fill:rgb(64,64,64);fill-rule:nonzero;"/>
        </g>
    </g>
</svg>
